# xmcd
#
# Track frame offsets: 
#        150
#        18479
#        51440
#        72734
#        93342
#        126946
#        157070
#        177548
#        197122
#        220475
#        253631
#        281834
#        297239
#
# Disc length: 4209 seconds
#
# Revision: 0
# Processed by: cddbd v1.5.2PL0 Copyright (c) Steve Scherf et al.
# Submitted via: ExactAudioCopy v1.2
#
DISCID=da106f0d
DTITLE=Big Al Dorn and the Blues Howlers - They Call Me Big Al
DYEAR=2017
DGENRE=Blues
TTITLE0=Red Wine Man
TTITLE1=The Love Club
TTITLE2=Uptown Lady
TTITLE3=Classy Not Trashy
TTITLE4=Nobody Understands Me
TTITLE5=18 Long Years
TTITLE6=Don't You Step on Me
TTITLE7=Fairest of the Fair
TTITLE8=Stone Cold Stoned
TTITLE9=I've Had Too Much to Drink
TTITLE10=Shootin' Iron
TTITLE11=They Call Me Big Al
TTITLE12=Big Al's Boogie
EXTD=
EXTT0=
EXTT1=
EXTT2=
EXTT3=
EXTT4=
EXTT5=
EXTT6=
EXTT7=
EXTT8=
EXTT9=
EXTT10=
EXTT11=
EXTT12=
PLAYORDER=
